<?xml version="1.0" encoding="utf-8"?>
<!-- Generator: Adobe Illustrator 26.0.1, SVG Export Plug-In . SVG Version: 6.00 Build 0)  -->
<svg version="1.1" id="Layer_1" xmlns="http://www.w3.org/2000/svg" xmlns:xlink="http://www.w3.org/1999/xlink" x="0px" y="0px"
	 viewBox="0 0 1312 528.9" style="enable-background:new 0 0 1312 528.9;" xml:space="preserve">
<style type="text/css">
	.st0{fill:url(#SVGID_1_);}
	.st1{fill:url(#SVGID_00000124857455603900451970000014328215509721968544_);}
	.st2{fill:url(#SVGID_00000139295512792359247730000004839540323943910275_);}
	.st3{fill:url(#SVGID_00000057864802002336052700000007232419251250991747_);}
	.st4{fill:url(#SVGID_00000146463449980516009040000018409769580603867312_);}
	.st5{fill:url(#SVGID_00000173120570579583910610000006392924964434265007_);}
	.st6{fill:#AFAFAF;}
</style>
<g>
	
		<linearGradient id="SVGID_1_" gradientUnits="userSpaceOnUse" x1="313.6517" y1="976.292" x2="314.2693" y2="975.6744" gradientTransform="matrix(721.094 0 0 -482.937 -225360.3906 471505.125)">
		<stop  offset="0" style="stop-color:#CCCED0"/>
		<stop  offset="1" style="stop-color:#84848C"/>
	</linearGradient>
	<path class="st0" d="M1034.6,315.8c-123,0-222.7-66.8-222.7-149.1c0-82.4,99.7-149.1,222.7-149.1c123,0,222.7,66.8,222.7,149.1
		C1257.3,249.1,1157.6,315.8,1034.6,315.8z M1068.7,75.9c-93.5,0-169.3,45.6-169.3,102s75.8,102,169.3,102
		c93.5,0,162.5-31.2,162.5-102C1231.2,107.1,1162.2,75.9,1068.7,75.9z"/>
	
		<linearGradient id="SVGID_00000047041213921216657550000015201124975230168459_" gradientUnits="userSpaceOnUse" x1="313.8882" y1="976.3794" x2="314.5057" y2="975.7618" gradientTransform="matrix(398 0 0 -406.124 -123947.4922 396657.0625)">
		<stop  offset="0" style="stop-color:#336CB3"/>
		<stop  offset="1" style="stop-color:#1C5DA9"/>
	</linearGradient>
	<path style="fill:url(#SVGID_00000047041213921216657550000015201124975230168459_);" d="M1151.1,248.6c0,0,13.5,4.1,21.3,8
		c2.7,1.4,7.4,4.1,10.8,7.7c3.3,3.5,4.9,7.1,4.9,7.1l53.1,89.6l-85.8,0l-40.1-75.4c0,0-8.2-14.1-13.3-18.2c-4.2-3.4-6-4.6-10.2-4.6
		c-2.9,0-20.4,0-20.4,0l0,98.2l-76,0V110.2H1148c0,0,69.5,1.3,69.5,67.4S1151.1,248.6,1151.1,248.6z M1118.1,164.6l-46,0l0,42.6
		l46,0c0,0,21.3-0.1,21.3-21.7C1139.4,163.4,1118.1,164.6,1118.1,164.6z"/>
</g>
<g>
	
		<linearGradient id="SVGID_00000149361745768620690940000003159354171940183993_" gradientUnits="userSpaceOnUse" x1="57.7068" y1="234.5519" x2="295.5069" y2="234.5519">
		<stop  offset="0" style="stop-color:#336CB3"/>
		<stop  offset="1" style="stop-color:#1C5DA9"/>
	</linearGradient>
	<path style="fill:url(#SVGID_00000149361745768620690940000003159354171940183993_);" d="M295.5,358.5h-77.7l-82.3-124.7v124.7
		H57.7v-248h77.7l82.3,126.8V110.6h77.7V358.5z"/>
	
		<linearGradient id="SVGID_00000038410581342597001080000017851583867541389756_" gradientUnits="userSpaceOnUse" x1="330.5255" y1="234.5519" x2="559.9201" y2="234.5519">
		<stop  offset="0" style="stop-color:#336CB3"/>
		<stop  offset="1" style="stop-color:#1C5DA9"/>
	</linearGradient>
	<path style="fill:url(#SVGID_00000038410581342597001080000017851583867541389756_);" d="M559.9,110.6v248h-77.7v-96.7h-73.9v96.7
		h-77.7v-248h77.7v89.3h73.9v-89.3H559.9z"/>
	
		<linearGradient id="SVGID_00000038380938939675944170000005098458084499430560_" gradientUnits="userSpaceOnUse" x1="587.9343" y1="233.6764" x2="786.509" y2="233.6764">
		<stop  offset="0" style="stop-color:#336CB3"/>
		<stop  offset="1" style="stop-color:#1C5DA9"/>
	</linearGradient>
	<path style="fill:url(#SVGID_00000038380938939675944170000005098458084499430560_);" d="M775.5,323.9c-7.4,11.4-18,20.5-32,27.1
		c-14,6.7-30.7,10-50.1,10c-29.7,0-54.1-6.9-73.4-20.8c-19.3-13.9-29.7-34.3-31.3-61.1h82.7c1.2,14.2,7.5,21.4,18.9,21.4
		c4,0,7.2-1.1,9.6-3.2c2.5-2.1,3.7-5.1,3.7-9.1c0-5.8-3-10.4-8.9-13.8c-6-3.4-15.6-7.3-28.9-11.7c-15.6-5.1-28.7-10.4-39-15.8
		c-10.4-5.4-19.4-13.3-27.1-23.8c-7.7-10.5-11.6-24.2-11.6-41c0-16.1,4.1-29.8,12.4-41.2c8.3-11.3,19.6-19.9,34-25.7
		c14.4-5.8,30.5-8.8,48.5-8.8c29.6,0,53.2,6.9,70.7,20.7c17.5,13.8,27.1,33.6,28.7,59.5h-83.7c-1.2-13.1-6.5-19.6-16.1-19.6
		c-3.3,0-6,1-8.1,3c-2.1,2-3.2,5-3.2,8.9c0,5.4,3,9.8,8.9,13.1c6,3.4,15.2,7.3,27.8,11.7c15.9,5.6,29,11.2,39.4,16.6
		c10.4,5.5,19.5,13.5,27.3,24.2c7.8,10.6,11.7,24.2,11.7,40.8C786.5,299.6,782.8,312.4,775.5,323.9z"/>
</g>
<g>
	
		<linearGradient id="SVGID_00000082339977420605918550000004508664365491454085_" gradientUnits="userSpaceOnUse" x1="821.9609" y1="238.9211" x2="961.7607" y2="238.9211">
		<stop  offset="0" style="stop-color:#336CB3"/>
		<stop  offset="1" style="stop-color:#1C5DA9"/>
	</linearGradient>
	<path style="fill:url(#SVGID_00000082339977420605918550000004508664365491454085_);" d="M961.8,211.5v54.9H822v-54.9H961.8z"/>
</g>
<g>
	<path class="st6" d="M136.2,422.1c8.1,6.4,13.5,15,16.1,25.9h-20.8c-2.2-5.3-5.5-9.5-10-12.6c-4.5-3.1-10-4.6-16.3-4.6
		c-5.2,0-10,1.3-14.2,3.9c-4.2,2.6-7.5,6.4-9.8,11.2c-2.3,4.9-3.5,10.6-3.5,17.1c0,6.5,1.2,12.1,3.5,17c2.3,4.9,5.6,8.6,9.8,11.2
		c4.2,2.6,8.9,3.9,14.2,3.9c6.4,0,11.8-1.5,16.3-4.6c4.5-3.1,7.9-7.3,10-12.6h20.8c-2.6,10.9-8,19.6-16.1,25.9
		c-8.1,6.4-18.4,9.5-30.7,9.5c-9.4,0-17.8-2.1-25-6.4c-7.2-4.3-12.9-10.2-16.8-17.9c-4-7.7-6-16.4-6-26.1c0-9.8,2-18.6,6-26.2
		c4-7.7,9.6-13.6,16.8-17.9c7.2-4.3,15.6-6.4,25.1-6.4C117.9,412.6,128.1,415.8,136.2,422.1z"/>
	<path class="st6" d="M280.9,418.6c7.5,4.3,13.5,10.3,17.8,18c4.3,7.7,6.5,16.4,6.5,26.2c0,9.7-2.2,18.5-6.5,26.2
		c-4.3,7.8-10.3,13.8-17.8,18.1c-7.5,4.3-15.9,6.5-25.2,6.5c-9.3,0-17.6-2.1-25.2-6.5c-7.5-4.3-13.5-10.3-17.8-18.1
		c-4.3-7.8-6.5-16.5-6.5-26.2c0-9.7,2.2-18.4,6.5-26.2c4.3-7.7,10.3-13.7,17.8-18c7.5-4.3,15.9-6.5,25.2-6.5
		C265,412.2,273.4,414.3,280.9,418.6z M240.4,434.3c-4.4,2.6-7.8,6.4-10.3,11.3c-2.5,4.9-3.7,10.6-3.7,17.2c0,6.5,1.2,12.3,3.7,17.2
		c2.5,4.9,5.9,8.7,10.3,11.3c4.4,2.6,9.5,3.9,15.3,3.9c5.8,0,10.9-1.3,15.3-3.9c4.4-2.6,7.8-6.4,10.3-11.3
		c2.5-4.9,3.7-10.6,3.7-17.2c0-6.5-1.2-12.3-3.7-17.2c-2.5-4.9-5.9-8.7-10.3-11.3c-4.4-2.6-9.5-3.9-15.3-3.9
		C249.9,430.4,244.8,431.7,240.4,434.3z"/>
	<path class="st6" d="M468.9,414.7v97.9h-19.6v-68.3l-25.1,68.3H407l-25.1-68v68h-19.8v-97.9h24l29.7,73.6l29.2-73.6H468.9z"/>
	<path class="st6" d="M635.6,414.7v97.9H616v-68.3l-25.1,68.3h-17.1l-25.1-68v68h-19.8v-97.9h24l29.7,73.6l29.2-73.6H635.6z"/>
	<path class="st6" d="M714.7,413.6v58.1c0,7.8,1.7,13.6,5.1,17.5c3.4,3.9,8.3,5.8,14.8,5.8c6.4,0,11.2-1.9,14.7-5.8
		c3.4-3.9,5.1-9.7,5.1-17.5v-58.1h19.6v58.1c0,9.2-1.7,16.9-5.1,23.2c-3.4,6.3-8.1,11-14.2,14.1c-6,3.1-12.9,4.6-20.5,4.6
		c-11.9,0-21.4-3.6-28.5-10.7c-7.1-7.1-10.7-17.5-10.7-31.3v-58.1H714.7z"/>
	<path class="st6" d="M917.4,512.6h-19.8l-44.3-67.3v67.3h-19.8v-99h19.8l44.3,67.9v-67.9h19.8V512.6z"/>
	<path class="st6" d="M997.2,413.6v99h-19.8v-99H997.2z"/>
	<path class="st6" d="M1124.5,413.6v15.7h-27.3v83.3h-19.8v-83.3h-27.2v-15.7H1124.5z"/>
	<path class="st6" d="M1257.3,413.6l-33.5,64.4v34.6h-19.9v-34.6l-33.7-64.4h22.7l21,43.3l21-43.3H1257.3z"/>
</g>
</svg>
